<svg width="320" height="108" viewBox="0 0 320 108" fill="none" xmlns="http://www.w3.org/2000/svg">
<path d="M302.212 0.489346C298.18 1.92988 295.279 6.32175 293.971 12.8217C293.652 14.5785 293.334 16.019 293.299 16.0893C293.263 16.1244 291.955 15.7028 290.434 15.0704C288.878 14.4731 286.366 13.7001 284.81 13.3839L281.981 12.7515L282.087 10.4677C282.264 7.3758 281.556 5.90014 279.47 4.91636C277.736 4.07311 276.569 4.17852 274.27 5.33797C271.052 6.95419 267.621 11.9785 267.09 15.8433C266.878 17.319 266.984 17.565 268.01 18.7244C270.061 21.0433 275.473 23.1866 279.363 23.1866C281.662 23.1866 283.431 22.2379 284.244 20.5514C284.74 19.5325 284.669 19.0055 283.714 16.1244C283.537 15.5974 283.714 15.5974 285.341 15.8785C286.366 16.0541 288.489 16.6163 290.08 17.1433L292.945 18.092L293.193 23.1866C293.582 31.0568 294.89 38.6811 296.871 44.6892C297.543 46.7621 298.993 48.027 301.08 48.3432C303.414 48.6594 309.321 47.9567 313.883 46.7973L317.88 45.7432L319.401 47.9216C321.877 51.3648 325.555 57.0216 326.899 59.481C328.349 62.081 329.198 62.7134 329.198 61.1675C329.198 59.9378 326.545 54.7729 323.327 49.7135C321.948 47.5702 320.745 45.673 320.604 45.427C320.427 45.1459 321.488 44.4432 323.999 43.2838C326.015 42.3351 328.597 40.9297 329.764 40.1568C337.05 35.2027 339.172 28.2109 334.574 24.2055C330.578 20.692 324.246 20.5866 317.703 23.9244C316.182 24.6974 314.909 25.2595 314.838 25.2244C314.803 25.1541 314.909 24.3109 315.121 23.3622C315.687 20.5866 315.546 13.8758 314.874 10.7488C313.176 2.77312 307.906 -1.51335 302.212 0.489346ZM307.411 3.82717C310.771 5.90014 312.433 11.1353 312.15 18.7595C312.009 22.4839 311.797 23.5028 310.665 27.0163C309.568 30.2838 309.392 31.1622 309.71 31.8298C310.382 33.3757 311.832 32.9541 314.662 30.4244C317.668 27.7541 319.401 26.6649 322.443 25.646C326.652 24.2406 331.002 24.873 332.912 27.1217C335.423 30.073 332.381 35.3081 326.086 38.9622C323.787 40.2973 318.552 42.6513 318.446 42.4405C318.411 42.3703 317.173 40.9649 315.652 39.3135C312.999 36.327 311.337 35.2027 310.276 35.6243C309.498 35.9054 309.957 36.6784 312.928 39.9811C314.272 41.4568 315.404 42.8622 315.404 43.073C315.404 43.9162 309.285 45.673 303.98 46.4108C301.327 46.7621 300.797 46.7621 300.549 46.3405C300.373 46.0946 299.736 44.0567 299.135 41.8784C296.128 31.1271 295.456 18.3379 297.543 11.2055C299.347 4.95149 303.803 1.61366 307.411 3.82717ZM279.328 7.62175C280.283 8.81634 280.142 10.7488 279.01 12.1542C277.984 13.4542 278.055 13.9109 279.646 15.3163C281.132 16.6514 282.37 18.9704 282.051 19.8136C281.698 20.692 279.293 21.1487 277.171 20.692C274.872 20.2352 270.521 18.2677 269.814 17.4244C269.213 16.7217 269.637 15.0001 271.087 12.119C272.148 9.94066 273.032 8.95688 275.048 7.69202C277.064 6.39202 278.338 6.39202 279.328 7.62175Z" fill="black"/>
<path d="M173.72 22.6281C171.551 23.6077 169.172 26.8615 168.017 30.4302L167.597 31.7598L165.568 31.7248C162.909 31.6898 161.475 32.4245 160.6 34.3138C158.256 39.527 163.084 50.3031 169.836 54.9564C172.25 56.6358 172.565 56.4958 174.909 52.9971C179.038 46.8393 180.997 42.7458 182.292 37.7076C184.811 27.6662 180.297 19.6541 173.72 22.6281ZM177.743 24.9372C179.178 25.672 180.227 28.0861 180.472 31.13C180.822 36.1332 178.513 42.6408 173.72 50.1981C172.46 52.1924 171.306 53.8018 171.131 53.8018C170.396 53.8018 166.583 49.0785 165.288 46.5944C161.195 38.7572 161.719 32.7744 166.373 34.5588C167.002 34.8037 167.317 35.2235 167.457 36.2032C168.157 40.3667 170.256 43.6555 172.215 43.6555C173.475 43.6555 174.28 42.5009 174.28 40.6815C174.245 38.8272 173.265 36.693 171.481 34.7687L170.011 33.1593L170.396 31.5498C171.376 27.7012 173.965 24.4824 176.134 24.4124C176.484 24.4124 177.219 24.6573 177.743 24.9372Z" fill="black"/>
<path d="M30.3685 22.9153C29.3154 24.2542 28.4379 27.214 28.4379 29.5042C28.4027 31.6184 28.5783 31.9355 30.4739 33.0982C31.0004 33.4153 31.0004 33.6972 30.509 36.516C30.2281 38.1721 29.5612 40.8852 29.0697 42.506C28.157 45.36 25.2083 51.5966 24.752 51.5966C24.6467 51.5614 23.5234 50.7862 22.2596 49.7996C18.4334 46.8751 16.608 46.1352 13.1328 46.1352C9.76283 46.1352 8.21828 46.7342 6.14717 48.8483C3.83035 51.1738 3.374 54.2393 4.84835 57.4104C7.72683 63.6823 15.7655 63.7527 22.8564 57.6571L25.3136 55.5077L27.1741 57.7628C30.86 62.3433 33.7034 67.9105 35.2479 73.6185C37.2839 81.0179 37.3892 81.2998 37.8105 80.877C38.3721 80.3132 37.6349 75.486 36.2659 70.9054C35.0022 66.6772 32.0886 60.8282 29.6314 57.5866C26.1561 53.0413 26.3316 53.9574 28.2272 50.6453C30.2632 47.0865 31.5972 43.1402 32.2992 38.4539C32.6152 36.4808 32.9311 34.5076 33.0013 34.0848C33.1066 33.5563 33.4927 33.2039 34.1246 33.063C37.2488 32.3935 37.4594 31.6888 35.8096 27.2844C33.9842 22.3868 32.0184 20.8012 30.3685 22.9153ZM16.8537 49.1302C18.6089 49.9053 23.3127 53.2527 23.3127 53.7107C23.3127 53.8517 22.4352 54.803 21.347 55.8248C16.4676 60.2645 10.9212 61.2158 7.97255 58.0799C5.69083 55.6134 5.69083 52.4775 7.97255 50.2225C10.2894 48.0027 13.4487 47.5798 16.8537 49.1302Z" fill="black"/>
<path d="M137.122 36.3587C133.969 37.6109 131.323 41.8683 131.034 46.1972C130.816 49.8107 131.65 52.4939 133.679 54.4616C135.056 55.8569 135.382 56 136.977 56C139.078 56 141.47 54.9267 142.775 53.3883C143.318 52.7443 144.261 51.206 144.877 49.918C145.819 47.9145 145.964 47.199 146 44.5515C146 41.9398 145.855 41.2243 144.985 39.4713C143.717 36.9311 142.267 35.9652 139.803 36.001C138.825 36.001 137.629 36.1798 137.122 36.3587ZM140.383 39.9006C142.086 40.795 142.449 45.6606 140.963 48.5943C139.912 50.6693 137.955 52.2435 136.832 51.9215C135.962 51.6353 134.766 48.9878 134.44 46.5908C134.186 44.9451 134.657 41.6536 135.273 40.6519C135.817 39.829 139.26 39.3282 140.383 39.9006Z" fill="black"/>
<path d="M124.587 40.4459C123.74 40.9355 119.89 44.9569 116.853 48.5937C116.04 49.6078 115.228 50.4471 115.051 50.4471C114.91 50.4471 113.073 49.1882 110.954 47.6845C108.835 46.1459 106.822 44.817 106.469 44.7121C104.491 44.2226 106.186 46.8453 111.096 51.8808L113.003 53.874L110.813 57.4759C106.257 65.0991 104.067 70.5193 105.374 70.9739C106.08 71.2187 107.211 69.8199 111.519 63.3856C113.886 59.8188 115.899 56.8464 115.97 56.7765C116.04 56.7065 117.912 58.0004 120.172 59.6789C124.411 62.7912 126 63.3856 126 61.9519C126 61.4973 124.517 59.7488 122.08 57.266L118.124 53.2796L121.938 47.2999C126.494 40.0962 126.848 39.257 124.587 40.4459Z" fill="black"/>
<path d="M204.103 46.4956C203.042 46.7782 201.947 47.2022 201.699 47.4142C200.851 48.1208 201.735 48.4388 203.396 48.0855C204.244 47.8735 205.834 47.6969 206.895 47.6969C208.626 47.6969 208.768 47.7322 208.273 48.2622C207.955 48.5448 203.184 50.6294 197.67 52.8552C186.078 57.5543 180.742 60.0275 180.105 61.1227C179.469 62.1474 179.893 63.172 181.024 63.4899C182.65 63.9493 188.729 63.7019 195.514 62.9246C199.049 62.536 202.477 62.1827 203.113 62.1827L204.244 62.218L203.184 62.7833C202.618 63.1013 195.126 66.3871 186.573 70.0969C169.856 77.3398 167.842 78.3644 167.206 79.7423C166.852 80.5196 166.923 80.7316 167.665 81.3322C169.043 82.4275 174.097 82.0389 185.689 79.919C191.026 78.9651 196.433 78.0464 197.635 77.9051C199.72 77.6578 199.897 77.6931 199.755 78.2938C199.685 78.6471 197.564 80.5903 195.055 82.6042C185.901 89.9178 184.523 91.437 185.477 93.3096C186.432 95.2528 188.835 95.5001 193.995 94.1575C198.024 93.0976 200.462 92.0023 199.897 91.437C199.614 91.1543 198.907 91.1897 197.458 91.4723C190.355 92.9562 188.163 93.0976 188.163 92.0023C188.163 91.7196 190.355 89.7058 193.041 87.5506C201.841 80.343 204.032 77.6578 202.3 76.2445C200.922 75.1493 197.458 75.5379 180.636 78.6117C173.85 79.8837 170.386 80.1663 171.093 79.4597C171.305 79.2477 178.904 75.8559 188.022 71.8635C197.105 67.9064 205.233 64.2319 206.082 63.7373C207.672 62.8186 208.379 61.4054 207.637 60.6634C206.895 59.9215 202.866 59.9921 194.631 60.9108C185.795 61.9 183.569 62.006 183.569 61.4761C183.569 60.9814 184.735 60.4515 196.681 55.4697C207.778 50.806 210.111 49.6401 210.782 48.4388C211.913 46.3189 208.485 45.3297 204.103 46.4956Z" fill="black"/>
<path d="M93.6767 48.2522C91.0859 49.0383 88.4601 51.3622 86.9896 54.1646C84.5739 58.7784 86.8496 66.1603 90.9108 66.9122C94.692 67.5957 99.0683 64.2123 100.504 59.4277C101.904 54.9165 100.224 49.756 96.9327 48.4231C95.7073 47.9105 95.0071 47.8763 93.6767 48.2522ZM96.0574 52.4217C97.2478 53.6178 97.5628 57.0012 96.6876 59.0176C96.0224 60.6239 94.2018 62.5035 92.9414 62.9478C91.9962 63.2554 91.7861 63.187 91.0509 62.5035C89.3704 60.8631 89.0203 56.1126 90.3507 53.3444C91.0159 52.0116 91.436 51.8407 93.9217 51.7382C95.0071 51.704 95.5672 51.909 96.0574 52.4217Z" fill="black"/>
<path d="M280.872 50.6891C280.391 51.0744 279.462 52.3002 278.842 53.386L277.706 55.3824L273.99 55.6626C269.654 56.0128 268.759 56.293 268.243 57.4488C267.624 58.8148 268.105 59.7604 270.652 62.3873C271.994 63.7182 273.095 65.0491 273.095 65.2943C273.095 65.5395 272.682 67.1506 272.201 68.8318C271.684 70.548 271.375 72.2292 271.512 72.5444C271.822 73.42 273.095 73.0697 276.364 71.1784C277.879 70.3028 279.289 69.5673 279.462 69.5673C279.668 69.5673 280.735 70.0576 281.87 70.618C284.279 71.8089 285.449 71.9139 286.55 71.0033C287.239 70.4429 287.376 69.9526 287.48 67.711L287.617 65.0491L289.751 63.6832C292.504 61.8269 293.674 60.7411 293.949 59.5853C294.362 57.8341 292.229 56.6433 288.684 56.6082C286.585 56.6082 285.553 56.0829 285.277 54.9621C284.899 53.386 283.901 51.1794 283.247 50.549C282.49 49.7785 281.974 49.8135 280.872 50.6891ZM282.042 55.4174C282.042 55.6976 281.802 55.9077 281.526 55.9077C280.941 55.9077 280.907 55.8377 281.217 55.0672C281.457 54.4367 282.042 54.6469 282.042 55.4174ZM275.848 59.2351C275.848 59.6904 275.022 61.5117 274.816 61.5117C274.403 61.5117 272.407 59.7604 272.407 59.4102C272.407 59.2351 272.751 59.06 273.198 58.9899C273.921 58.8848 275.848 59.06 275.848 59.2351ZM282.146 59.3752C283.04 59.7254 283.212 60.1107 283.591 62.2122C283.797 63.403 283.763 63.473 281.939 64.4887L280.047 65.5045L278.67 64.5588L277.259 63.6131L277.775 62.1071C278.704 59.3752 280.012 58.5696 282.146 59.3752ZM289.063 60.2508C288.856 60.8112 287.273 61.5817 286.86 61.3365C286.723 61.2665 286.516 60.8462 286.413 60.4609C286.241 59.8305 286.413 59.7604 287.755 59.7604C288.856 59.7604 289.2 59.8655 289.063 60.2508ZM276.192 67.2557C276.192 67.3608 276.055 67.5359 275.848 67.6409C275.676 67.746 275.504 67.676 275.504 67.5009C275.504 67.2907 275.676 67.1156 275.848 67.1156C276.055 67.1156 276.192 67.1856 276.192 67.2557Z" fill="black"/>
<path d="M79.1274 52.9875C78.2772 53.4983 76.5416 54.7241 75.3018 55.7116C73.2473 57.312 72.9639 57.4142 72.2909 57.0055C68.607 54.6901 66.7651 53.7026 66.2337 53.7026C65.667 53.7026 65.667 53.7366 66.2337 54.6219C66.588 55.1668 67.7569 56.3586 68.8196 57.312L70.8032 59.0146L67.0839 62.5899C63.0103 66.4718 58.2284 71.8519 57.3428 73.4864C56.5989 74.8825 57.0949 75.3932 58.5472 74.6781C59.1139 74.4057 62.6561 71.3071 66.3754 67.8338L73.1056 61.5003L76.6832 64.7352C80.0129 67.7657 81.3944 68.6851 81.9257 68.2084C82.3508 67.7657 80.9339 65.6886 78.1355 62.7261C76.577 61.0236 75.2664 59.5594 75.2664 59.4232C75.2664 59.287 76.3999 57.959 77.7813 56.5288C80.2255 53.9409 81.6069 52 81.0047 52C80.863 52 80.0129 52.4427 79.1274 52.9875Z" fill="black"/>
<path d="M234.528 56.6808C234.012 57.0976 233.083 58.4868 232.429 59.7719C231.466 61.6821 231.053 62.1684 230.296 62.342C229.78 62.4462 228.438 62.6893 227.372 62.8977C225.273 63.3145 224 64.3912 224 65.7457C224 66.1278 224.998 67.4823 226.202 68.7326L228.369 70.9901L226.89 75.54C225.135 80.7844 224.998 82 226.168 82C226.58 82 227.406 81.5485 227.957 81.0275C230.193 78.9436 233.737 76.0262 234.459 75.7136C235.044 75.4358 235.663 75.5747 237.418 76.4082C240.136 77.728 241.512 77.7628 242.82 76.6514C243.852 75.7483 244.024 74.3244 243.508 71.2333L243.267 69.6704L245.125 68.2116C247.465 66.4056 248.221 65.2942 247.946 64.1133C247.637 62.9325 246.776 62.5504 243.37 62.2031C241.753 62.0294 240.411 61.8558 240.343 61.7863C240.308 61.7169 239.827 60.7791 239.276 59.633C237.487 55.9862 236.317 55.2568 234.528 56.6808ZM236.524 61.057C236.764 61.7516 236.661 61.8558 235.732 61.8558H234.666L235.251 60.6402C235.835 59.3899 236.042 59.4593 236.524 61.057ZM238.588 66.7529C239.138 68.1422 239.138 68.2464 238.485 68.941C237.384 70.1219 235.491 70.9901 234.597 70.747C234.15 70.6428 233.427 70.2261 232.945 69.8787L232.12 69.2188L232.705 67.2739L233.324 65.3289H235.663H238.037L238.588 66.7529ZM242.923 65.6068C242.923 66.0583 242.51 66.3709 242.166 66.1625C241.822 65.9541 242.132 65.3289 242.613 65.3289C242.785 65.3289 242.923 65.4679 242.923 65.6068ZM229.849 66.3709C229.849 66.5445 229.608 66.7182 229.333 66.7182C229.058 66.7182 228.817 66.5445 228.817 66.3709C228.817 66.1625 229.058 66.0236 229.333 66.0236C229.608 66.0236 229.849 66.1625 229.849 66.3709ZM240.515 73.1782C240.515 74.0812 240.136 74.2202 239.07 73.6297L238.347 73.2477L239.173 72.6225C240.136 71.8584 240.515 72.0321 240.515 73.1782ZM231.741 73.2824C231.913 73.6297 230.537 74.8106 230.262 74.5675C230.193 74.4633 230.227 74.0812 230.365 73.6992C230.606 72.9351 231.363 72.7267 231.741 73.2824Z" fill="black"/>
<path d="M154.69 61.9437C153.342 63.3768 151 67.3965 151 68.2703C151 69.5985 151.958 69.1092 153.874 66.8372C154.868 65.6488 155.826 64.5303 156.003 64.3555C156.181 64.1458 157.316 64.7051 158.913 65.7886C161.717 67.746 162.781 68.1305 162.994 67.2567C163.207 66.1382 157.636 61 156.181 61C155.861 61 155.187 61.4194 154.69 61.9437Z" fill="black"/>
<path d="M133.335 70.3364C132.028 71.8636 130 75.0455 130 75.6182C130 75.8409 130.275 76 130.653 76C131.272 76 132.613 74.7909 134.503 72.5636L135.397 71.4818L137.941 73.2636C141.654 75.8727 143.338 75.6182 140.76 72.85C138.972 70.9091 136.257 69 135.328 69C134.778 69 134.125 69.4455 133.335 70.3364Z" fill="black"/>
<path d="M305.087 79.5196C304.475 79.8659 303.647 80.9744 302.783 82.637C302.063 84.0571 301.415 85.2348 301.343 85.2348C301.307 85.2348 300.011 85.4773 298.464 85.7544C295.26 86.3432 294 87.2092 294 88.8025C294 89.5992 294.504 90.2573 296.232 91.8507L298.464 93.9289L296.772 98.8821C294.36 105.914 294.936 106.572 299.831 102.45C301.487 101.064 303.359 99.5749 304.007 99.1592L305.159 98.3279L307.859 99.4017C311.135 100.718 312.43 100.753 313.69 99.5749C314.59 98.709 314.626 98.605 314.374 95.6262L314.122 92.6127L316.138 91.1579C318.442 89.4606 319.414 88.0058 318.838 86.9667C318.226 85.8929 317.11 85.4773 314.014 85.2695L311.135 85.0616L309.803 82.637C308.471 80.247 307.283 79 306.455 79C306.239 79.0346 305.627 79.2425 305.087 79.5196ZM306.923 83.8493C307.283 84.8538 307.247 84.8884 306.239 84.8884C305.231 84.8884 305.195 84.8538 305.555 83.8493C305.771 83.2605 306.095 82.8102 306.239 82.8102C306.383 82.8102 306.707 83.2605 306.923 83.8493ZM308.975 89.5646C309.767 91.4004 309.623 91.7467 307.499 93.0283C305.627 94.1714 305.447 94.2407 304.547 93.7557C303.971 93.4786 303.251 92.9591 302.891 92.6127C302.351 91.9892 302.315 91.7814 302.747 90.7422C303.035 90.0841 303.359 89.2874 303.467 88.9411C303.647 88.4561 304.151 88.3522 306.059 88.3522C308.435 88.3522 308.435 88.3522 308.975 89.5646ZM313.582 89.0796C313.474 89.2528 313.222 89.3221 313.042 89.1835C312.862 89.0796 312.79 88.8372 312.934 88.664C313.042 88.4908 313.294 88.4215 313.474 88.5601C313.654 88.664 313.726 88.9064 313.582 89.0796ZM299.939 89.3914C300.047 89.5646 299.903 89.7377 299.616 89.7377C299.292 89.7377 299.04 89.5646 299.04 89.3914C299.04 89.1835 299.184 89.045 299.364 89.045C299.58 89.045 299.831 89.1835 299.939 89.3914ZM311.243 96.5614C311.279 97.1849 310.019 97.1156 309.515 96.5268C309.155 96.1457 309.263 95.9379 309.911 95.4876C310.667 94.9681 310.739 94.9681 310.991 95.5223C311.099 95.8686 311.243 96.3536 311.243 96.5614ZM301.919 96.4921C301.919 97.0463 300.695 97.8084 300.371 97.462C300.011 97.1502 300.803 95.9726 301.379 95.9726C301.667 95.9726 301.919 96.215 301.919 96.4921Z" fill="black"/>
<path d="M153.712 82.8943C152.651 84.0658 150 88.503 150 89.1774C150 90.7748 151.273 90.0294 153.57 87.0831C155.409 84.7757 155.409 84.7757 156.151 85.4502C157.6 86.7636 160.676 88.716 161.347 88.716C162.585 88.716 162.054 87.4735 159.827 85.3082C156.116 81.6874 155.161 81.2969 153.712 82.8943Z" fill="black"/>
<path d="M117.095 83.4111C116.054 84.3232 113 89.65 113 90.6351C113 90.8176 113.312 91 113.694 91C114.11 91 115.047 90.0879 116.158 88.7014C117.129 87.4609 118.031 86.3299 118.17 86.1839C118.309 86.038 119.558 86.8042 120.981 87.8988C123.549 89.869 124.555 90.2703 124.971 89.5406C125.284 88.9933 122.993 86.1475 120.911 84.3962C119.107 82.9368 118.031 82.6449 117.095 83.4111Z" fill="black"/>
<path d="M58.6757 84.741C57.9548 85.7173 57.2339 86.5489 57.0176 86.5489C56.8374 86.5489 55.8642 86.2235 54.8549 85.8258C53.8457 85.428 52.8004 85.1026 52.512 85.1026C51.6109 85.1026 51.8992 86.2958 53.3771 88.3569L54.7828 90.3094L53.8817 91.6472C52.6922 93.4552 53.0166 93.8529 55.5758 93.7083L57.6664 93.5998L59.1803 95.3354C61.4151 97.8664 62.5325 97.4687 61.7755 94.4314C61.5592 93.5998 61.4511 92.8405 61.5232 92.7681C61.5953 92.6597 62.4604 92.4789 63.3975 92.2981C64.3347 92.1173 65.344 91.7196 65.6684 91.3941C66.1369 90.8879 66.1369 90.7794 65.4881 90.3094C65.0916 89.984 63.8301 89.2608 62.6406 88.6461L60.55 87.5975L60.8023 86.0789C61.2348 83.6563 61.1988 83.1501 60.586 83.0055C60.2256 82.9331 59.5047 83.584 58.6757 84.741ZM55.9363 88.3569C55.9363 88.5376 55.8642 88.7184 55.7921 88.7184C55.6839 88.7184 55.5037 88.5376 55.3956 88.3569C55.2875 88.1399 55.3595 87.9953 55.5398 87.9953C55.756 87.9953 55.9363 88.1399 55.9363 88.3569ZM59.1803 90.5263C59.1803 91.7919 58.4954 91.9365 57.5943 90.9241C57.0897 90.3456 57.0536 90.0563 57.378 89.4778C57.9548 88.3569 59.1803 89.08 59.1803 90.5263ZM61.8836 90.2371C62.5325 90.5263 62.6766 90.7433 62.3522 90.9602C61.5953 91.4303 61.0907 91.2857 60.8744 90.5263C60.6581 89.6947 60.6581 89.6585 61.8836 90.2371Z" fill="black"/>
<path d="M89.734 85.4978C83.616 86.8359 78.1584 92.47 79.5836 95.9561C80.3484 97.8577 82.3993 98.3506 85.9798 97.4351L86.8488 97.2238L86.1536 99.1958C85.0412 102.506 82.8512 105.886 78.9927 110.112C76.9765 112.366 75.2732 114.197 75.2036 114.197C75.1341 114.197 74.0913 113.985 72.8746 113.704C70.9279 113.246 68.4599 112.999 66.6175 113.105C65.5746 113.175 65.9223 114.197 67.1389 114.69C67.7299 114.971 69.3984 115.464 70.7889 115.781C73.5698 116.486 73.6394 116.591 72.7703 119.127C72.0056 121.275 72.0751 123 72.8746 123C73.3613 123 73.8827 122.225 74.7865 120.253C75.4817 118.774 76.1422 117.049 76.2812 116.415C76.4203 115.64 76.9417 115.007 77.8455 114.338C78.6103 113.809 80.7655 111.767 82.6426 109.795C85.9798 106.238 87.9264 103.245 89.2126 99.4423L89.6297 98.2802L91.5416 100.041C93.0364 101.414 93.8011 101.872 94.983 102.048C96.8602 102.33 98.4244 101.625 99.363 100.006C100.997 97.2942 99.363 91.3432 95.8868 87.2584C95.1221 86.3781 94.4964 85.4978 94.4964 85.2865C94.4964 84.8287 92.3064 84.9343 89.734 85.4978ZM94.1488 87.8571C96.1649 90.0403 98.1811 96.6956 97.3816 98.4563C96.8602 99.5831 95.8173 99.8296 94.4268 99.0549C92.9321 98.2802 91.8545 96.6604 91.5764 94.7941C91.4373 93.949 91.1592 93.0686 90.9507 92.8221C90.3945 92.1531 88.7955 92.2587 87.7874 93.0686C86.5707 94.0546 84.0679 95.1814 83.0945 95.1814C80.696 95.1814 82.7122 91.9066 86.5012 89.6177C87.9612 88.7374 92.0631 87.1528 93.0016 87.1176C93.2449 87.0824 93.7664 87.4345 94.1488 87.8571Z" fill="black"/>
<path d="M343.071 86.6208C343.071 86.9781 343.632 88.9074 344.298 90.9439C345.912 95.7315 345.877 98.8755 344.158 101.019L343.527 101.805L342.685 100.233C341.106 97.3392 338.476 96.3031 336.16 97.768C334.652 98.6969 334.196 99.6973 334.407 101.627C334.722 104.413 336.862 106.45 339.914 106.879L341.668 107.129V109.308C341.632 116.347 337.669 124.242 332.933 126.708C332.092 127.136 331.355 127.422 331.285 127.315C331.215 127.244 331.46 125.743 331.881 123.992C333.67 116.275 330.759 110.737 326.339 113.488C324.129 114.846 322.621 118.312 322.691 121.813C322.761 124.921 323.357 126.565 325.111 128.387C326.9 130.28 326.9 130.28 324.129 133.782C320.867 137.926 315.535 141.392 312.378 141.428C311.361 141.463 310.554 141.249 310.239 140.927C309.748 140.427 309.888 140.177 311.642 138.498C314.167 136.068 315.781 132.817 315.851 130.138C315.851 127.958 315.43 127.208 313.676 126.458C311.256 125.421 308.274 127.315 306.31 131.102C305.468 132.746 305.363 133.353 305.363 136.497L305.328 140.034L303.96 140.534C301.855 141.32 297.681 141.035 295.717 139.998C292.455 138.248 290.28 135.282 289.894 132.067C289.789 130.924 289.929 128.423 290.245 126.029C290.561 123.778 290.736 121.884 290.631 121.777C289.719 120.848 288 126.851 288 130.995C288 134.818 288.702 136.711 291.122 139.177C294.91 143.143 299.225 144.286 304.276 142.785C306.415 142.106 307.152 142.035 307.608 142.357C309.432 143.678 310.379 144 312.449 144C317.009 143.964 323.708 139.248 327.672 133.246C328.935 131.388 329.671 130.602 330.373 130.423C334.266 129.566 336.932 127.815 339.352 124.528C342.65 120.062 344.053 115.775 344.368 109.38C344.544 105.485 344.649 104.985 345.456 104.02C347.736 101.234 348.578 97.2678 347.595 93.6593C347.139 91.98 345 87.4783 344.228 86.5851C343.492 85.7991 343.071 85.7991 343.071 86.6208ZM339.458 100.698C341.141 102.591 341.317 104.199 339.914 104.199C338.861 104.199 337.108 102.305 337.108 101.234C337.108 99.7687 338.37 99.5187 339.458 100.698ZM329.356 116.561C330.127 118.061 329.987 122.134 329.075 124.707C328.689 125.85 328.268 126.886 328.163 127.029C327.742 127.422 326.76 126.458 325.988 124.921C324.62 122.242 325.076 118.74 327.005 116.489C328.233 115.06 328.654 115.096 329.356 116.561ZM313.045 128.708C313.922 129.03 313.746 131.317 312.694 133.425C311.887 135.068 309.046 138.141 308.345 138.141C308.029 138.141 307.643 136.854 307.643 135.783C307.643 133.996 308.801 131.138 310.098 129.852C311.396 128.494 311.957 128.28 313.045 128.708Z" fill="black"/>
<path d="M210.214 87.6178C207.169 88.9768 205.965 91.451 206.001 96.1901C206.072 101.835 208.09 105.878 212.41 109.118C214.711 110.826 215.136 111 216.729 111C218.925 111 223.457 109.432 226.715 107.515C232.097 104.379 235 100.128 235 95.4235C235 92.6357 234.469 91.5903 232.344 90.1616C230.114 88.6981 227.21 89.2208 223.528 91.7646L221.262 93.3327L220.518 92.3221C217.013 87.5133 213.755 86.0149 210.214 87.6178ZM214.676 91.2419C215.313 91.66 216.482 92.8797 217.19 93.9251C220.093 98.037 220.624 98.2112 223.917 95.7023C226.75 93.5766 228.131 92.8797 229.476 92.8797C231.778 92.8797 232.274 95.5629 230.609 98.9779C229.264 101.766 227.033 103.752 222.784 106.017C221.191 106.853 215.561 109.258 215.171 109.258C215.101 109.258 214.392 108.596 213.614 107.759C210.745 104.797 209.329 101.173 209.329 96.6083C209.329 93.6115 209.896 91.8691 211.135 90.9979C212.268 90.2313 213.259 90.301 214.676 91.2419Z" fill="black"/>
<path d="M258.268 90.2712C257.684 91.0015 256.86 92.2795 256.483 93.1558L255.762 94.6894L251.883 94.872C247.626 95.0911 246.424 95.5658 246.046 97.1724C245.772 98.3409 246.699 99.8745 249.273 102.577L251.299 104.731L250.303 108.346C248.759 113.823 249.136 114.079 254.183 111.121L257.444 109.186L259.504 110.208C262.628 111.778 263.555 111.851 264.585 110.756C265.374 109.916 265.477 109.514 265.477 107.287V104.731L267.64 103.27C270.901 100.97 272 99.7649 272 98.4869C272 96.8803 270.833 96.223 267.434 95.8579C265.889 95.7118 264.379 95.4927 264.07 95.3467C263.795 95.2371 263.28 94.1417 262.937 92.9733C261.77 88.8106 260.225 87.9343 258.268 90.2712ZM259.984 94.2513C259.984 94.5434 259.744 94.799 259.47 94.799C259.161 94.799 259.058 94.5799 259.161 94.2513C259.298 93.9591 259.504 93.7035 259.675 93.7035C259.847 93.7035 259.984 93.9591 259.984 94.2513ZM253.668 98.5965C253.908 99.2902 253.221 100.641 252.638 100.641C252.398 100.641 251.78 100.203 251.265 99.6554C250.578 98.9251 250.441 98.633 250.784 98.3774C251.539 97.9027 253.462 98.0488 253.668 98.5965ZM260.602 98.7425C261.049 99.0712 261.701 101.116 261.701 102.284C261.701 102.796 261.152 103.307 259.916 104.001L258.131 105.023L256.826 104.11C256.105 103.599 255.522 102.942 255.522 102.65C255.522 102.321 255.899 101.262 256.38 100.276C257.204 98.5234 257.307 98.4504 258.714 98.4504C259.504 98.4504 260.362 98.5965 260.602 98.7425ZM266.953 99.1442C267.537 99.2537 267.125 99.9475 266.13 100.495C265.237 100.97 264.997 101.006 264.756 100.568C263.932 99.2537 264.722 98.7425 266.953 99.1442ZM262.388 106.995C262.388 107.104 262.25 107.287 262.044 107.396C261.873 107.506 261.701 107.433 261.701 107.25C261.701 107.031 261.873 106.849 262.044 106.849C262.25 106.849 262.388 106.922 262.388 106.995Z" fill="black"/>
<path d="M133.874 91.7349C132.914 92.8411 130 97.7656 130 98.3008C130 99.8709 131.68 98.729 134.011 95.5531L135.211 93.876L137.509 95.6602C140.526 98.051 142 98.5863 142 97.3373C142 96.8021 138.64 93.1623 137.063 91.9847C135.451 90.7357 134.8 90.7 133.874 91.7349Z" fill="black"/>
<path d="M48.9318 91.3262C48.0634 91.7181 47.6775 92.7156 48.3207 92.965C48.8675 93.2143 50.765 92.0743 50.9902 91.3974C51.1188 90.8987 49.961 90.8631 48.9318 91.3262Z" fill="black"/>
<path d="M40.4812 93.1571C39.6468 93.387 39.9733 94 40.8802 94C42.5127 94 44 93.6679 44 93.3359C44 93.0804 43.5284 92.9783 42.4764 93.0038C41.6057 93.0038 40.6988 93.0804 40.4812 93.1571Z" fill="black"/>
<path d="M1.79385 94.5078C1.6869 94.8203 1.7582 95.8273 2.00774 96.7996C2.61376 99.4038 2.54246 99.6121 0.795689 100.55C-1.9136 101.973 -1.55711 102.841 1.86514 103.258L3.93276 103.501L4.75267 106.071C5.18045 107.494 5.75083 108.779 6.03602 108.918C6.74899 109.369 8.03233 107.911 8.8879 105.689L9.63651 103.64L11.0625 103.744C12.0963 103.814 12.5597 103.675 12.8449 103.258C13.2014 102.737 12.9875 102.39 11.7398 101.14C10.1356 99.5427 10.0286 99.126 10.6703 97.0079C11.2407 95.0981 10.706 94.6467 8.99484 95.6537C8.28187 96.0356 7.4976 96.3829 7.28371 96.3829C7.03417 96.3829 6.00037 95.8273 5.00221 95.1676C2.97025 93.8481 2.15033 93.6745 1.79385 94.5078ZM4.93091 97.0426L5.75083 97.6676L4.96656 98.0843C4.25359 98.4315 4.14665 98.3968 3.82581 97.5982C3.61192 97.0773 3.46933 96.6259 3.46933 96.5218C3.46933 96.1745 4.14665 96.4176 4.93091 97.0426ZM8.10363 100.723C8.10363 101.904 8.06798 101.939 6.71334 101.939C5.78648 101.939 5.25175 101.765 5.10916 101.383C4.71702 100.411 4.85962 100.029 5.85777 99.4385C7.21242 98.6399 8.10363 99.1607 8.10363 100.723ZM3.11284 101.591C3.11284 101.765 2.97025 101.939 2.75636 101.939C2.57811 101.939 2.39987 101.765 2.39987 101.591C2.39987 101.383 2.57811 101.244 2.75636 101.244C2.97025 101.244 3.11284 101.383 3.11284 101.591ZM7.39066 104.751C6.82028 106.592 6.4638 106.592 6.10731 104.786C5.89342 103.779 5.96472 103.675 6.78463 103.675C7.6402 103.675 7.67585 103.744 7.39066 104.751Z" fill="black"/>
<path d="M32.0167 94.5726C31.3603 94.8844 30.9112 95.3521 31.0149 95.6249C31.2912 96.5603 34.6423 95.586 34.9878 94.4557C35.1605 93.7931 33.4677 93.8711 32.0167 94.5726Z" fill="black"/>
<path d="M24.5256 96.4939C23.3112 96.8585 22.9401 97.1237 23.0076 97.5547C23.1425 98.1846 23.5136 98.1514 26.2459 97.4221C27.2916 97.0906 28 96.7259 28 96.4276C28 95.8309 26.6507 95.864 24.5256 96.4939Z" fill="black"/>
<path d="M14.8765 98.4495C13.3338 98.9084 12.6359 99.4897 13.1869 99.9486C13.5909 100.285 18.8066 98.8778 18.9903 98.3577C19.1739 97.8376 16.713 97.8988 14.8765 98.4495Z" fill="black"/>
<path d="M153.604 99.5233C152.556 100.186 149 105.559 149 106.397C149 107.408 150.086 107.129 151.396 105.699C152.07 105.001 153.118 103.885 153.754 103.222L154.84 102.07L157.797 104.024C160.605 105.943 161.69 106.292 161.99 105.385C162.289 104.582 156.038 99 154.84 99C154.615 99 154.054 99.2442 153.604 99.5233Z" fill="black"/>
<path d="M110.078 104.69C108.38 107.122 107 109.662 107 110.352C107 111.695 108.38 110.896 110.361 108.465L112.342 105.924L115.03 107.92C116.516 109.009 118.002 109.88 118.355 109.88C119.594 109.88 119.028 108.61 116.834 106.396C112.731 102.331 111.917 102.114 110.078 104.69Z" fill="black"/>
<path d="M14.0221 104.166C13.785 104.595 15.5043 105.67 16.779 105.915C19.2098 106.406 17.6683 104.626 15.1486 104.074C14.615 103.951 14.1407 103.982 14.0221 104.166Z" fill="black"/>
<path d="M35.9678 106.204L34.8046 107.563L32.7601 107.215C30.1163 106.727 28.1423 106.866 28.0013 107.563C27.966 107.877 28.671 108.957 29.658 110.002L31.3853 111.919L30.363 113.173C29.799 113.87 29.3408 114.637 29.3408 114.846C29.3408 115.334 30.7155 115.334 32.7248 114.846L34.3463 114.428L36.2146 116.275C38.7879 118.783 39.3871 118.609 39.4224 115.403L39.4576 112.964L40.7619 112.476C42.5597 111.814 42.3834 110.804 40.3389 110.037C38.4706 109.305 38.1534 108.887 38.1534 106.831C38.1534 104.601 37.4484 104.427 35.9678 106.204ZM33.2183 108.957C33.6766 109.236 33.6766 109.34 33.1126 109.898C32.5486 110.49 32.4781 110.455 31.5615 109.549L30.5745 108.609H31.6321C32.2313 108.609 32.9363 108.783 33.2183 108.957ZM36.6728 110.072C36.9196 110.316 37.0959 110.839 37.0959 111.292C37.0959 112.302 35.6506 112.964 34.5931 112.442C33.7118 111.954 33.7471 111.466 34.6988 110.455C35.5448 109.549 36.0383 109.445 36.6728 110.072ZM37.8009 114.602C37.8009 115.334 37.7656 115.334 37.0959 114.707C36.5671 114.219 36.4966 113.975 36.8139 113.801C37.4131 113.417 37.8009 113.731 37.8009 114.602Z" fill="black"/>
<path d="M204.607 105.463C203.764 106.259 199.732 113.696 197.35 118.849C193.831 126.493 190.423 137.873 191.082 139.602C191.559 140.744 192.292 139.533 194.125 134.587C195.078 132.028 197.167 126.943 198.779 123.346C204.864 109.649 206 106.951 206 106.086C206 104.91 205.45 104.668 204.607 105.463Z" fill="black"/>
<path d="M0.876112 106.969C-0.164159 108.135 -0.294193 109 0.5727 109C1.30956 109 3 107.27 3 106.518C3 105.653 1.82969 105.917 0.876112 106.969Z" fill="black"/>
<path d="M21 107.345C21 107.914 25.2412 109.295 25.7981 108.943C26.4407 108.537 25.4982 107.833 23.6989 107.345C21.9425 106.885 21 106.885 21 107.345Z" fill="black"/>
</svg>
