<svg width="320" height="109" viewBox="0 0 320 109" fill="none" xmlns="http://www.w3.org/2000/svg">
<path d="M136.055 -40.0905C133.989 -36.8168 133 -33.2326 133 -28.7453C133 -24.7096 133.465 -22.734 135.211 -19.291C136.2 -17.3154 136.899 -16.4123 139.284 -14.0981C142.019 -11.4453 142.194 -11.2195 142.484 -9.72371C143.561 -3.90999 149.903 2.35528 158.719 6.3628C166.69 9.97521 179.637 12.9103 188.045 12.995C190.925 13.0232 191.652 12.9385 191.885 12.5998C192.293 11.9507 191.798 11.8379 187.376 11.471C177.018 10.6808 166.69 8.19722 159.126 4.6977C153.307 2.04484 148.507 -1.70868 145.976 -5.54686C144.987 -7.09907 143.765 -9.94949 143.997 -10.2035C144.085 -10.2882 145.103 -10.0624 146.267 -9.72371C148.769 -9.01816 150.223 -8.98994 152.202 -9.55438C154.267 -10.147 155.547 -11.5017 155.751 -13.3361C155.926 -15.1988 155.693 -15.9608 154.616 -17.1461C153.395 -18.5007 151.649 -19.0934 149.351 -18.9523C146.296 -18.7547 144.143 -17.3436 143.095 -14.8883C142.805 -14.211 142.397 -13.6466 142.164 -13.6466C141.583 -13.6466 138.499 -16.8639 137.364 -18.6983C134.018 -24.004 133.669 -31.5111 136.433 -38.0868C137.015 -39.4414 137.393 -40.655 137.306 -40.7679C137.015 -41.2194 136.666 -41.0219 136.055 -40.0905ZM151.503 -17.3154C152.871 -16.9203 154.355 -15.3117 154.355 -14.1828C154.355 -11.9815 152.551 -10.6833 149.409 -10.7115C146.79 -10.7115 144.172 -11.8404 144.172 -12.9692C144.172 -14.3803 145.539 -16.1583 147.169 -16.9203C148.827 -17.6541 149.845 -17.7387 151.503 -17.3154Z" fill="black"/>
<path d="M22.102 -19.34C21.7604 -18.9808 20.8495 -17.6819 20.1094 -16.4659L18.7714 -14.2274L17.7182 -15.5815C15.1562 -18.8702 11.911 -19.8375 10.5731 -17.7095C8.80816 -14.9183 11.3132 -7.20786 15.4409 -2.78612C17.3196 -0.796334 19.5116 1 20.1378 1C21.248 1 24.237 -5.21808 25.4041 -9.97145C26.4289 -14.1445 26.0873 -18.9255 24.7209 -19.7822C24.0377 -20.1967 22.7852 -20.0033 22.102 -19.34ZM24.2085 -15.4157C24.2939 -12.8732 24.0662 -12.21 23.2976 -13.039C22.8706 -13.4812 22.8706 -13.6747 23.2407 -15.0288C23.4684 -15.8579 23.6677 -16.7699 23.6677 -17.0462C23.6677 -17.9582 23.0699 -17.4884 22.4721 -16.1343C22.102 -15.2499 21.7604 -14.8354 21.6181 -14.9736C21.305 -15.2775 21.6466 -16.0514 22.7283 -17.4608C23.7246 -18.7597 24.0662 -18.2899 24.2085 -15.4157ZM15.1562 -15.6092C15.9248 -14.8906 16.551 -14.1168 16.551 -13.8958C16.551 -13.7023 16.1241 -13.9234 15.6117 -14.4208C15.0993 -14.9183 14.5584 -15.3052 14.4161 -15.3052C14.2453 -15.3052 13.9321 -14.7248 13.7044 -13.9787C13.4482 -13.2601 13.1351 -12.7074 12.9927 -12.7074C12.4234 -12.7903 11.5979 -14.2274 11.5979 -15.1117C11.5979 -16.5488 11.8825 -16.9633 12.8789 -16.9633C13.5905 -16.9633 14.1029 -16.6593 15.1562 -15.6092ZM20.9349 -12.3758C20.6787 -11.7954 20.3371 -10.994 20.1948 -10.6347C19.967 -9.99909 19.9101 -9.99909 19.4831 -10.4136C19.0276 -10.8282 19.0561 -10.9111 19.6254 -11.5191C19.967 -11.8783 20.2517 -12.2376 20.2517 -12.3205C20.2517 -12.431 20.394 -12.8456 20.5364 -13.2601C20.7356 -13.7576 20.9349 -13.9234 21.1342 -13.7299C21.305 -13.5641 21.248 -13.0943 20.9349 -12.3758ZM15.6971 -11.1874C15.4124 -10.1649 15.327 -10.082 14.8431 -10.3307C14.1883 -10.6624 14.1314 -11.2427 14.5869 -12.514C14.9 -13.4259 14.9285 -13.4259 15.4693 -12.8732C15.9533 -12.4034 15.9817 -12.21 15.6971 -11.1874ZM23.2407 -11.4362C23.7531 -10.8834 23.7531 -10.8005 23.2691 -8.83838C23.0129 -7.73295 22.4152 -6.01952 21.9312 -5.0799L21.0772 -3.3112L20.3371 -4.05737C19.6254 -4.74827 19.597 -4.83118 19.9386 -5.90898C20.2517 -6.98678 20.3371 -7.04205 21.1342 -6.87623C22.0736 -6.65515 22.1874 -6.95914 21.5042 -7.98167C21.0772 -8.58966 21.1057 -8.78311 21.5327 -10.1096C22.2728 -12.2929 22.3582 -12.3758 23.2407 -11.4362ZM18.5152 -9.6951C19.3123 -8.7002 19.3408 -8.56202 19.0276 -7.76058C18.5152 -6.57224 18.1736 -6.57224 17.2627 -7.70531C16.5795 -8.58966 16.5226 -8.86602 16.6934 -9.94382C16.8926 -11.3532 17.1773 -11.3256 18.5152 -9.6951ZM14.4161 -8.94893C14.9 -8.42384 14.8431 -7.01441 14.3022 -7.01441C13.9321 -7.01441 13.1635 -8.7002 13.3343 -9.14238C13.5336 -9.63982 13.8183 -9.58455 14.4161 -8.94893ZM17.4335 -5.60498C17.9174 -4.94172 17.9459 -4.74827 17.6328 -4.05737C17.4335 -3.64283 17.2627 -3.22829 17.2058 -3.17302C17.0919 -3.00721 16.2949 -3.72574 15.6971 -4.49955C15.2416 -5.16281 15.2131 -5.32862 15.5832 -6.1577C16.0387 -7.18023 16.3233 -7.09732 17.4335 -5.60498ZM19.967 -2.73085C20.5364 -2.15049 20.5933 -1.95704 20.3086 -1.34905C19.9101 -0.492339 19.3977 -0.464703 18.5722 -1.32142C17.9459 -1.95704 17.9459 -2.01231 18.4014 -2.70321C18.9992 -3.58756 19.1415 -3.58756 19.967 -2.73085Z" fill="black"/>
<path d="M196 -16.6961C196 -15.2297 199.388 -12.0035 202.689 -10.273C205.697 -8.71858 208.238 -7.83871 211.772 -7.16414C214.401 -6.66554 214.635 -6.54823 216.095 -5.19908C218.695 -2.73543 223.368 -0.975684 229.005 -0.271784C230.349 -0.125138 233.883 0.0215077 236.833 0.0215077H242.207L241.418 1.07736C240.396 2.4265 240.133 4.39155 240.805 5.4474C242.499 8.02837 247.289 7.32447 251.875 3.8343C253.978 2.25052 255 0.754737 255 -0.741051C255 -1.7969 254.825 -2.06086 251.992 -4.8178C248.545 -8.19066 246.471 -9.42248 243.901 -9.59846C242.47 -9.71577 242.149 -9.62779 241.331 -8.92389C240.513 -8.24932 240.396 -7.95603 240.396 -6.7242C240.396 -5.93231 240.659 -4.70049 240.98 -3.93793C241.301 -3.17537 241.564 -2.44214 241.564 -2.2955C241.564 -1.85556 231.225 -1.97288 228.129 -2.47147C224.799 -2.97007 220.739 -4.37787 219.016 -5.60969C217.643 -6.63621 217.526 -6.46024 220.301 -7.45743C223.193 -8.45462 224.916 -10.3024 224.916 -12.3261C224.916 -14.907 221.761 -16.6375 218.432 -15.8456C215.803 -15.259 214.08 -13.3819 213.729 -10.7423C213.642 -10.1264 213.525 -9.5398 213.437 -9.45181C213.145 -9.18785 207.333 -10.5663 204.996 -11.4462C202.513 -12.4141 198.95 -14.6431 197.636 -16.0802C196.759 -16.9894 196 -17.2827 196 -16.6961ZM221.732 -13.1766C223.631 -12.1501 220.272 -9.36382 217.117 -9.36382C216.212 -9.36382 216.153 -9.42248 216.153 -10.3317C216.183 -11.5049 216.738 -12.5607 217.643 -13.0593C218.49 -13.5286 220.944 -13.5872 221.732 -13.1766ZM246.092 -6.75353C248.019 -5.815 252.955 -1.41562 252.955 -0.623734C252.955 0.138824 250.122 2.57315 248.049 3.59967C245.829 4.71417 243.463 4.91948 242.937 4.06893C242.674 3.68765 242.879 3.15973 243.989 1.5173C244.748 0.373458 245.361 -0.741051 245.361 -0.975684C245.361 -1.21032 244.894 -1.97288 244.31 -2.67678C242.762 -4.52451 241.973 -6.75353 242.645 -7.39877C243.054 -7.83871 244.427 -7.57475 246.092 -6.75353Z" fill="black"/>
<path d="M83.0869 -10.6199C69.758 -8.28265 67.0164 1.09432 77.0495 10.0771C83.816 16.1031 95.3074 21.5378 103.941 22.7768C107.207 23.2273 112.049 22.9739 114.499 22.2136C118.115 21.1154 120.361 18.2432 119.836 15.4273C119.019 11.1753 113.361 6.97956 105.865 5.12107C101.17 3.96655 93.6158 3.85391 93.2366 4.95211C93.0908 5.3745 93.6741 5.45897 98.574 5.82504C103.503 6.19111 107.178 7.0922 110.824 8.80991C115.344 10.95 117.969 13.7659 117.969 16.4692C117.969 19.3414 114.003 21.3407 108.228 21.3407C98.6907 21.3407 85.566 15.6807 77.8662 8.24672C74.2204 4.72684 72.9371 2.53043 72.9371 -0.341793C72.908 -1.86238 73.0538 -2.3974 73.7246 -3.52377C77.5745 -9.85956 91.7492 -10.9014 108.345 -6.05808C117.415 -3.43929 124.007 -0.764177 129.461 2.44596C133.311 4.72684 136.344 5.90952 134.39 4.36077C132.815 3.09361 125.669 -1.13025 122.782 -2.51004C115.403 -6.05808 104.145 -9.46533 96.0657 -10.6199C92.3616 -11.1267 85.9743 -11.1267 83.0869 -10.6199Z" fill="black"/>
<path d="M308.327 -10.7457C304.767 -10.1886 302.293 -8.5174 300.875 -5.70414C300.121 -4.17217 300 -3.61509 300 -1.44247C300 0.479454 300.151 1.42649 300.694 2.59636C302.021 5.6603 305.159 8.41785 309.655 10.3955C312.763 11.7603 314.543 12.2617 314.965 11.8718C315.206 11.6489 314.211 11.064 311.526 9.83841C304.345 6.55163 301.267 3.09773 301.297 -1.69316C301.328 -5.64843 304.013 -8.46169 308.75 -9.54799C311.133 -10.0772 311.676 -10.3836 311.013 -10.7736C310.5 -11.08 310.56 -11.08 308.327 -10.7457Z" fill="black"/>
<path d="M269.757 -8.23799C268.368 -6.88859 268.942 -4.51964 271.056 -2.63048C274.198 0.188274 277.763 -0.831274 276.857 -4.27975C276.404 -5.89903 275.165 -7.72822 273.987 -8.4479C272.627 -9.25754 270.664 -9.16758 269.757 -8.23799Z" fill="black"/>
<path d="M307.8 -4.37821C305.7 -3.42792 305 -2.55908 305 -1.03862C305 0.644757 306.367 2.65394 308.7 4.44592C310.4 5.72203 312 6.37366 312 5.77633C312 5.66773 311.2 4.90749 310.2 4.03865C308.1 2.19237 307 0.454699 307 -0.930011C307 -1.7717 307.267 -2.12466 308.5 -3.07495C310.867 -4.89408 310.467 -5.62716 307.8 -4.37821Z" fill="black"/>
<path d="M156 -1.50187C156 -0.729702 158.426 1.67591 160.735 3.22025C163.805 5.23977 166.728 6.21983 171.726 6.84351C174.006 7.14049 175 7.0217 175 6.42772C175 5.95254 174.035 5.56646 170.908 4.79429C165.354 3.39844 161.525 1.7353 158.426 -0.729702C156.643 -2.15525 156 -2.33344 156 -1.50187Z" fill="black"/>
<path d="M92.3001 -1.76415C89.9272 -1.41227 87.6422 -0.239338 86.9099 0.962921C86.0017 2.42909 86.0896 4.51105 87.1442 6.15316C89.0191 9.14414 94.4386 12.3111 100.122 13.7479C102.876 14.4517 107.504 14.8622 107.797 14.393C108.09 13.9239 107.68 13.7772 105.161 13.4254C98.2762 12.487 89.2827 7.61933 88.316 4.33511C87.818 2.72232 88.316 1.8133 90.2202 0.87495C91.4505 0.259159 92.1829 0.141865 95.4932 0.0245743C99.6238 -0.122044 102.114 0.229836 107.387 1.60803C113.949 3.33811 121.712 6.73963 126.839 10.1411C130.325 12.4284 134.426 16.4457 135.627 18.7036C137.209 21.6652 136.623 24.5389 133.987 26.7968C128.684 31.3419 117.816 32.5442 104.721 29.9931C98.1005 28.7028 95.9619 27.9404 84.0097 22.5449C82.4863 21.8705 81.1974 21.4013 81.1095 21.4893C80.6701 21.8998 81.5196 22.6622 84.2733 24.275C89.9858 27.6765 97.5732 30.4329 104.868 31.7525C116.087 33.8344 125.257 33.3066 131.555 30.1983C134.367 28.7908 136.125 27.354 137.209 25.5359C137.883 24.363 138 23.8352 138 21.9585C138 20.1111 137.854 19.466 137.121 17.9998C135.92 15.5953 131.497 11.1968 127.923 8.82159C117.084 1.66668 100.942 -3.14235 92.3001 -1.76415Z" fill="black"/>
<path d="M210.202 1.34892C209.851 1.77971 209.267 3.58899 208.391 6.92038L207.748 9.27532L203.046 11.0559C197.643 13.0949 197 13.4396 197 14.215C197 15.134 198.227 15.6509 202.228 16.3689C204.331 16.7422 206.171 17.1156 206.346 17.2304C206.726 17.4602 206.726 19.8439 206.317 23.8932C205.938 27.6841 206.054 28 207.894 28C208.537 28 213.035 26.9087 217.854 25.5589C222.703 24.2378 227.551 22.9455 228.69 22.687C231.115 22.1414 232.108 21.567 231.991 20.8203C231.932 20.5044 230.676 19.212 229.158 17.891C227.639 16.5699 224.426 13.4396 222.031 10.9123C214.7 3.21565 214.087 2.61255 213.093 1.77971C212.1 0.946861 210.728 0.745829 210.202 1.34892ZM215.605 6.66191C217.504 8.67223 220.308 11.6015 221.827 13.1524C223.345 14.7032 224.63 16.1104 224.689 16.254C224.806 16.5125 223.345 15.8807 214.583 11.86C210.728 10.0794 209.559 9.41892 209.647 9.07429C210.786 5.08237 211.516 3.01462 211.808 3.01462C211.984 3.01462 213.678 4.65159 215.605 6.66191ZM218.292 15.2776C225.799 18.9823 226.967 19.6715 225.273 19.4705C219.607 18.7813 210.436 16.9145 207.515 15.8519C206.463 15.4786 204.711 14.9904 203.572 14.7893C202.462 14.5596 201.41 14.3011 201.264 14.1862C201.118 14.0714 202.111 13.4683 203.455 12.8939C204.769 12.2908 206.405 11.5154 207.047 11.1708L208.216 10.5677L209.676 11.142C210.494 11.4867 214.379 13.3247 218.292 15.2776ZM211.283 18.5228C213.356 19.0397 224.309 21.1075 225.127 21.1075C225.886 21.1362 224.455 21.6531 221.242 22.5434C219.402 23.0316 215.751 24.1517 213.123 25.0132C210.523 25.8748 208.245 26.5641 208.07 26.5641C207.748 26.5641 207.778 25.5589 208.274 19.8726C208.362 18.81 208.566 17.9484 208.741 17.9484C208.888 17.9484 210.056 18.2069 211.283 18.5228Z" fill="black"/>
<path d="M288.164 1.62614C287.433 2.89844 289.279 6.226 291.056 6.87846C292.938 7.53092 293.669 5.44304 292.276 3.32254C290.882 1.13679 288.896 0.321214 288.164 1.62614Z" fill="black"/>
<path d="M266.75 6.68182C266.024 7.29545 265.913 7.5 266.052 8.20455C266.247 9.15909 267.391 10.25 268.675 10.6818C269.177 10.8636 270.321 11 271.214 11C272.553 11 272.943 10.9091 273.446 10.4773C275.259 8.88636 272.33 6 268.898 6C267.81 6 267.447 6.11364 266.75 6.68182Z" fill="black"/>
<path d="M282.203 9.49859C281.884 10.2823 281.906 10.6182 282.522 12.2416C282.91 13.2212 283.388 13.9209 284.004 14.4248C286.466 16.44 286.74 12.7174 284.323 10.0864C283.183 8.85484 282.568 8.6869 282.203 9.49859Z" fill="black"/>
<path d="M30.9587 12.5341C29.5235 13.3646 25.8331 15.5124 22.7578 17.2879C19.7117 19.0348 16.3142 20.9249 15.2305 21.469C13.1803 22.4713 12.7117 22.9009 13.151 23.3305C13.7661 23.9318 14.7326 23.445 29.5821 15.0828C30.2557 14.6819 30.8122 14.4814 30.8122 14.6246C30.8122 15.1687 28.059 18.2043 26.5653 19.2925C23.6657 21.3831 24.8958 22.0704 29.7285 21.0394C36.7286 19.5503 55.0048 16.5147 55.2977 16.7724C55.4442 16.9156 52.8082 17.7748 47.9462 19.1494C46.5111 19.5503 42.147 20.524 38.2809 21.2685C29.3185 23.0441 26.3017 24.1323 26.7996 25.3924C26.9461 25.7647 27.3854 25.8792 28.6741 25.8792C31.3394 25.9078 38.1344 26.9102 38.1344 27.2824C38.1344 27.397 33.0967 27.6547 26.9461 27.8552C15.582 28.1989 14.3811 28.342 14.1761 29.3444C14.0297 30.0603 14.5569 30.1176 18.5109 29.8598C20.5318 29.7166 25.7452 29.4875 30.1093 29.3157C37.8415 29.0293 42.5863 28.5139 43.2307 27.8838C43.4357 27.6834 43.4357 27.4543 43.2307 27.082C42.9964 26.7383 41.5027 26.3088 37.8708 25.5356C35.0884 24.9628 32.7453 24.4187 32.6574 24.3328C32.4817 24.1609 32.4231 24.1609 39.6867 22.7004C50.26 20.6099 61.302 17.0875 62.7371 15.4265C63.3522 14.7105 62.8543 14.1378 61.5949 14.1378C60.4233 14.1378 30.6072 18.9203 30.1678 19.178C29.5528 19.5789 30.08 18.6625 31.4858 16.9729C34.3269 13.5937 35.2055 12.3336 35.2055 11.6749C35.2055 10.5581 33.8875 10.8158 30.9587 12.5341Z" fill="black"/>
<path d="M68.1274 12.3486C67.718 13.014 68.3321 15.5491 69.4434 17.9574C71.1981 21.7282 75 26.323 75 24.6435C75 24.4217 74.0642 22.7106 72.9236 20.8093C71.783 18.9397 70.35 16.1828 69.7066 14.6935C69.0632 13.2041 68.4783 12 68.4199 12C68.3614 12 68.2151 12.1584 68.1274 12.3486Z" fill="black"/>
<path d="M319.257 13.59C316.798 15.3852 318.154 18.5703 321.527 18.9756C324.994 19.352 326.35 15.2694 323.324 13.5611C322 12.8082 320.329 12.8082 319.257 13.59ZM322.536 15.2983C323.261 15.9643 323.292 16.2539 322.851 17.0646C322.63 17.4121 322.189 17.6147 321.558 17.6147C320.802 17.6147 320.518 17.441 320.171 16.6882C319.667 15.53 320.045 14.7193 321.117 14.7193C321.558 14.7193 322.189 14.9798 322.536 15.2983Z" fill="black"/>
<path d="M292.203 16.205C291.559 16.8362 292.525 18.6202 294.027 19.5808C294.752 20.0473 295.047 20.1022 295.503 19.8552C296.335 19.3886 296.147 18.7025 294.752 17.3028C293.571 16.1226 292.659 15.711 292.203 16.205Z" fill="black"/>
<path d="M262.565 18.1611C261.339 18.4471 258.8 20.1915 257.545 21.5928L256.576 22.6794L255.264 21.4498C254.494 20.6777 253.496 20.0771 252.783 19.8769C251.043 19.3908 249.275 20.3345 248.02 22.4507C246.851 24.4238 246.594 25.3389 246.166 28.7992C245.567 33.918 246.537 38.5221 249.874 46.5292C251.899 51.4192 252.868 52.0198 255.036 49.6748C260.283 44.0984 266.301 34.7759 268.041 29.5713C268.925 26.9118 269.238 23.8805 268.811 22.2791C267.984 19.162 265.388 17.4462 262.565 18.1611ZM266.329 21.3926C267.128 22.4793 267.271 25.196 266.643 27.5981C266.044 29.8858 264.447 33.3746 262.451 36.6919C259.513 41.6105 253.353 49.1601 252.811 48.5596C252.669 48.4452 251.728 45.6141 250.672 42.3254C248.819 36.5203 248.733 36.2057 248.619 32.7455C248.448 28.6562 248.762 26.4256 249.845 24.2237C251.072 21.7071 252.754 21.507 254.294 23.7375L255.093 24.8814L254.095 27.3121C252.441 31.4015 252.212 35.6338 253.496 38.0931C254.836 40.7526 257.346 40.3237 258.43 37.2352C259.2 35.0333 259.114 30.1718 258.258 27.2263L257.631 25.0244L258.572 23.7089C259.684 22.1647 261.909 20.4489 263.164 20.1629C264.333 19.9055 265.588 20.3917 266.329 21.3926ZM256.918 32.7455C256.918 34.7473 256.804 35.7482 256.433 36.5775C255.977 37.607 255.891 37.6642 255.492 37.2638C254.522 36.2915 254.551 31.8304 255.549 29.3139L256.062 28.0556L256.462 29.0279C256.718 29.6571 256.89 31.0583 256.918 32.7455Z" fill="black"/>
<path d="M144.844 19.2341C144.758 19.3698 144.902 20.1836 145.16 20.9974C145.591 22.408 145.591 22.6251 145.131 23.9272C144.873 24.7139 144.27 25.9617 143.811 26.7213C142.892 28.2676 142.748 29 143.409 29C143.926 29 145.39 27.1553 146.309 25.3378C147.285 23.4118 147.227 21.8384 146.136 20.2378C145.246 18.8815 145.131 18.8001 144.844 19.2341Z" fill="black"/>
<path d="M4.68456 23.1173C3.6308 23.7634 2.34286 24.527 1.84526 24.7913L0.908579 25.2612L-0.320809 23.8809C-1.16967 22.9117 -1.72583 22.5299 -2.16489 22.5886C-2.72104 22.6767 -2.77959 22.9117 -2.92594 25.32L-3.0723 27.9632L-7.08245 29.7548C-11.356 31.6638 -12 32.0456 -12 32.6917C-12 33.4847 -10.6828 33.9252 -7.60933 34.1602C-2.75032 34.4832 -3.10157 34.2189 -2.92594 37.8314C-2.77959 40.7389 -2.75032 40.8858 -2.10635 40.9739C-1.19894 41.1207 -0.789148 40.7096 0.93785 38.1544C2.51849 35.8049 2.48922 35.8049 4.7431 36.9503C6.17739 37.6845 7.20188 37.6551 7.61167 36.9209C7.9922 36.216 7.9922 36.216 6.08957 33.6609C5.32852 32.5742 4.68456 31.4876 4.68456 31.2526C4.68456 30.9883 5.50415 29.0205 6.4701 26.8766C8.31418 22.8823 8.43126 22.2068 7.14334 22.0012C6.82135 21.9719 5.73832 22.4711 4.68456 23.1173ZM4.24549 27.1409L3.48444 28.8443L2.89902 28.1394C2.60631 27.7576 2.34286 27.3171 2.34286 27.1115C2.34286 26.7884 4.71383 25.1144 4.91873 25.32C4.97727 25.3787 4.68456 26.2011 4.24549 27.1409ZM-0.876962 26.3773C-0.876962 26.5241 -0.994046 26.6416 -1.16967 26.6416C-1.31603 26.6416 -1.46238 26.436 -1.46238 26.1717C-1.46238 25.9367 -1.31603 25.8193 -1.16967 25.9074C-0.994046 25.9955 -0.876962 26.2011 -0.876962 26.3773ZM1.46473 29.8722C2.22578 31.3701 2.28432 31.7225 1.99161 32.3686C1.64036 33.191 1.25983 33.2497 -0.35008 32.7798C-1.46238 32.4861 -1.46238 32.4861 -1.46238 30.8708C-1.46238 29.373 -1.40384 29.2261 -0.496436 28.6975C0.00117302 28.3744 0.469511 28.1101 0.498783 28.1101C0.557325 28.1101 0.967121 28.903 1.46473 29.8722ZM-3.10157 30.9002C-2.6625 32.1043 -3.59918 32.633 -5.56035 32.2805L-6.87755 32.0456L-5.41399 31.2526C-3.71626 30.3715 -3.33574 30.3128 -3.10157 30.9002ZM0.235342 35.1294C0.586596 35.335 0.557325 35.5112 0.1768 36.216C-0.0573692 36.6859 -0.525708 37.3908 -0.847691 37.802L-1.46238 38.5362V36.6859C-1.46238 34.9825 -1.40384 34.865 -0.789148 34.865C-0.437894 34.865 0.0304441 34.9825 0.235342 35.1294Z" fill="black"/>
<path d="M169.561 26.4273C168.25 26.8615 168.104 27.0062 168.017 27.8747C167.93 28.6274 168.163 29.1774 169.124 30.4222C171.339 33.346 173.233 33.7223 171.281 30.8564C170.698 30.0169 170.319 29.2642 170.406 29.1774C170.727 28.859 174.165 29.959 176.147 31.0012C181.975 34.0408 185.967 40.2937 184.889 44.6359C184.51 46.0255 184.102 46.7492 183.665 46.7492C183.519 46.7492 182.966 46.3729 182.441 45.8807C179.993 43.7675 176.817 43.2754 175.768 44.8386C175.011 45.9386 176.234 48.6598 177.983 49.8177C179.09 50.5125 180.839 50.6572 182.354 50.1362L183.694 49.673L184.685 51.7573C186.579 55.6654 187.074 59.3418 186.171 62.6709C185.938 63.5394 185.734 64.6394 185.734 65.1315L185.763 66L186.317 65.3342C187.016 64.4947 187.686 62.3525 187.949 60.0945C188.211 57.8075 187.453 54.2179 186.025 51.0046L184.889 48.4572L185.676 46.9808C188.852 40.9016 183.141 31.4643 174.69 28.8011C173.641 28.4537 172.592 28.1063 172.359 28.0484C172.067 27.9616 172.213 27.73 172.883 27.3247C173.408 27.0062 173.787 26.601 173.699 26.3983C173.524 25.8483 171.164 25.8773 169.561 26.4273ZM180.926 46.6913C182.325 47.6755 182.441 48.4861 181.246 48.8045C179.935 49.1519 178.245 48.3414 177.575 47.0097C176.875 45.6491 176.875 45.6491 177.517 45.5333C178.303 45.3597 179.673 45.7939 180.926 46.6913Z" fill="black"/>
<path d="M325.487 31.1249C324.707 31.7432 323.175 33.333 322.107 34.6578C319.853 37.3958 318.438 38.5145 317.166 38.5145C316.444 38.5145 315.78 37.9551 312.977 35.0111C309.54 31.3899 308.615 30.7128 306.708 30.3889C305.148 30.1534 302.866 31.1838 301.566 32.7147C301.017 33.3624 299.775 35.4527 298.793 37.3663C297.811 39.3094 296.626 41.1936 296.164 41.6058C294.69 42.8717 293.564 42.5479 288.653 39.5744C284.435 37.013 282.008 36.7481 279.379 38.544C277.241 39.9865 276.317 42.96 277.559 44.3732C278.455 45.3742 278.888 45.1681 278.83 43.8138C278.772 42.4007 279.466 41.3408 280.91 40.5459C282.846 39.486 284.695 39.9571 288.19 42.3712C292.784 45.5802 296.655 45.8452 298.677 43.1072C299.053 42.6067 300.208 40.4281 301.277 38.3084C302.78 35.1877 303.415 34.2456 304.253 33.6568C306.362 32.2142 307.662 32.8325 311.1 36.8953C313.989 40.3104 315.115 41.1347 317.109 41.1642C318.553 41.1642 319.882 40.5753 321.355 39.2211C323.204 37.5135 328 31.2721 328 30.595C328 29.6529 327.076 29.8296 325.487 31.1249Z" fill="black"/>
<path d="M48.3253 35.3024C46.238 36.0628 44.0097 39.3384 43.3891 42.5555C43.2199 43.4329 43.0225 44.3103 42.9661 44.515C42.8814 44.749 42.4301 44.6613 41.3583 44.2518C39.271 43.3744 35.999 43.3452 34.6451 44.1933C30.9219 46.4161 33.4605 50.1011 42.8532 56.0967C43.4174 56.4476 43.8405 57.2373 44.4892 59.0506C46.0124 63.4083 48.4381 68 49.2279 68C49.4818 68 51.7665 66.8594 54.3051 65.4848C59.6643 62.5894 58.9874 62.6771 65.1082 64.0517C69.8187 65.1046 73.7676 65.1631 75.4318 64.2564C78.4781 62.6186 76.9267 59.2553 72.1598 57.1495C71.0033 56.6231 69.9597 56.1259 69.8469 56.0382C69.734 55.9504 70.411 54.9268 71.3418 53.8154C74.3881 50.1304 75.5164 46.7378 74.5856 44.1933C73.7958 42.0583 71.8777 41.4734 68.7468 42.4385C66.5185 43.1112 62.3439 45.4509 59.1848 47.8199C57.6899 48.9313 56.3359 49.8672 56.1949 49.8672C56.0539 49.8672 55.9411 48.3756 55.9128 46.5623C55.8846 41.1224 54.2769 37.0279 51.569 35.5949C50.2151 34.8929 49.6228 34.8344 48.3253 35.3024ZM50.9767 37.4081C51.8793 37.9346 53.1768 40.0111 53.7127 41.7951C53.9666 42.6725 54.2205 44.9245 54.3051 47.3227C54.4743 51.7097 54.7282 52.4116 55.8846 51.9437C56.2513 51.7974 58.4796 50.3059 60.8772 48.6388C65.6159 45.3339 68.9443 43.7254 71.1162 43.7254C72.865 43.7254 73.4009 44.3981 73.2317 46.4453C72.9214 50.4813 69.2545 54.7513 62.3721 59.1676C60.708 60.2497 59.2412 60.9808 58.7617 60.9808C56.9283 60.9808 46.1252 56.6231 45.5046 55.5995C44.8559 54.5466 44.461 49.5747 44.7995 46.1821C45.2508 41.5319 46.379 38.7827 48.2971 37.5544C49.3125 36.9109 50.0459 36.8817 50.9767 37.4081ZM40.8506 45.4509L42.684 45.9481L42.8814 50.1596C42.9943 52.4993 43.0507 54.4296 42.9943 54.4589C42.9661 54.4881 41.9506 53.8739 40.7377 53.0843C37.8325 51.1248 34.6451 47.9076 34.6451 46.884C34.6451 45.0707 37.2683 44.4565 40.8506 45.4509ZM71.2854 58.2317C73.5137 59.2553 74.9522 60.3667 75.46 61.3903C75.8831 62.2092 75.8549 62.2969 75.2907 62.7649C73.9932 63.8762 70.1007 63.847 64.7979 62.7356C63.1901 62.3847 61.7516 62.0045 61.6388 61.8875C61.4977 61.7412 62.9081 60.6299 64.7415 59.4015C68.4647 56.9156 68.493 56.8863 71.2854 58.2317ZM50.1587 59.46C52.105 60.2497 54.4179 61.1563 55.3205 61.4488C56.1949 61.7412 56.9283 62.063 56.9283 62.1799C56.9283 62.3847 49.8202 66.5377 49.4818 66.5377C49.1997 66.5377 47.1406 62.0922 46.5201 60.1619C45.8431 58.0854 45.7867 57.6467 46.2944 57.8515C46.4637 57.9392 48.2125 58.6704 50.1587 59.46Z" fill="black"/>
<path d="M214.309 35.5062C213.241 36.1529 212.144 37.6715 211.105 39.9211C210.672 40.8491 210.297 41.6364 210.268 41.6927C210.239 41.7208 209.546 41.3552 208.709 40.8772C205.361 38.8525 201.753 39.9492 201.753 43.0144C201.753 45.1515 205.245 49.1727 208.94 51.3099L211.047 52.5191L208.507 53.8126C204.784 55.6686 202.445 57.9182 200.656 61.3771C198.751 65.0327 198 67.2542 198 69.307C198 71.8379 198.693 71.4723 199.414 68.604C200.28 65.2015 203.282 60.1398 205.678 58.087C207.006 56.9621 210.066 55.3593 213.155 54.2063C214.482 53.7283 214.598 53.6158 214.598 52.7441C214.598 51.8442 214.482 51.7598 211.971 50.4944C207.988 48.4979 205.216 46.192 204.177 43.9704C203.6 42.6769 203.946 42.0301 205.274 42.0301C206.342 42.0301 207.035 42.3676 208.882 43.8861C211.163 45.7702 211.971 45.4608 212.693 42.4519C213.097 40.7928 214.829 37.6715 215.464 37.4184C216.243 37.1372 216.878 38.5713 216.994 40.8209C217.08 42.2551 216.907 43.7174 216.474 45.6858C215.926 47.9636 215.868 48.5541 216.186 48.9197C216.821 49.6508 217.456 49.3977 219.216 47.6261C222.68 44.2235 227.472 41.3552 232.206 39.893C234.169 39.2743 234.948 39.19 237.258 39.2743C239.538 39.3306 240 39.3024 240 38.9369C240 37.7277 234.198 37.109 231.167 37.9808C228.309 38.7963 220.775 42.9019 220.082 43.9986C219.996 44.1392 219.736 44.2798 219.534 44.2798C219.274 44.2798 219.188 43.5486 219.188 41.3834C219.216 38.9088 219.13 38.3463 218.553 37.3059C217.918 36.1248 216.474 35 215.608 35C215.377 35 214.8 35.225 214.309 35.5062Z" fill="black"/>
<path d="M137.931 37.352C136.401 37.9237 135.211 38.8099 133.907 40.4108C130.224 44.8704 128.751 50.4734 129.034 58.9352C129.261 65.9676 130.649 71.3134 133.369 75.7444C134.871 78.1743 134.842 78.1743 139.29 77.2595C140.792 76.9451 142.18 76.6878 142.379 76.6878C142.549 76.6878 142.945 77.1452 143.229 77.6883C143.54 78.2601 144.334 79.232 145.014 79.8323C146.6 81.3189 147.96 81.376 150.652 80.061C154.76 78.0314 157.877 73.972 157.905 70.5987C157.933 69.1122 157.962 68.9979 158.783 68.6548C160.058 68.1117 163.628 64.3668 165.215 61.9369C167.028 59.1639 167.793 57.0485 167.963 54.3613C168.161 51.6169 167.566 49.6444 166.008 47.9292C164.648 46.4141 162.977 45.8138 160.285 45.8138C156.63 45.8138 152.437 47.3003 148.017 50.1018L146.232 51.2453L146.289 47.7577C146.345 43.1552 145.694 40.954 143.682 38.9243C141.84 37.0661 140.084 36.5801 137.931 37.352ZM141.047 40.1821C141.982 40.6967 142.747 41.8402 143.285 43.4982C143.767 45.0133 143.739 47.043 143.229 52.1887C143.087 53.5323 143.144 53.9325 143.54 54.3899C144.39 55.3332 145.41 55.076 147.96 53.3607C152.607 50.2448 156.12 48.7582 159.577 48.4724C162.523 48.2437 163.997 48.9012 164.932 50.8165C165.47 51.9314 165.555 52.4745 165.442 54.2183C165.215 57.8775 163.033 61.5938 158.925 65.3673C156.913 67.2255 156.885 67.2255 155.327 67.2255C153.57 67.1969 152.748 67.4542 151.077 68.5405C150.454 68.9407 149.83 69.2551 149.689 69.2551C149.575 69.2551 149.122 68.4833 148.697 67.5399C147.762 65.4816 146.374 64.3953 144.73 64.3953C141.415 64.3953 140.14 67.4542 141.274 72.6856C141.472 73.7147 141.614 74.5723 141.557 74.6295C141.387 74.8296 135.891 76.4019 135.409 76.4019C134.446 76.4019 132.462 69.9412 131.754 64.5383C131.272 60.7648 131.584 52.8748 132.321 49.9017C133.142 46.5856 134.332 44.07 135.947 42.3547C138.157 39.9248 139.574 39.3531 141.047 40.1821ZM146.034 67.9401C146.289 68.3118 146.714 69.4838 146.969 70.5416C147.337 72.0281 147.592 72.5141 148.13 72.7713C148.895 73.1144 148.697 73.2287 151.927 71.0275C153.23 70.1699 153.967 69.8269 154.59 69.8841C155.383 69.9698 155.44 70.0556 155.383 71.0275C155.298 72.5712 154.448 74.0578 152.692 75.7158C151.02 77.3167 150.057 77.917 147.705 78.7174C145.949 79.3178 146.09 79.4035 144.929 77.1737C143.965 75.287 143.115 71.828 143.115 69.7697C143.115 68.3689 143.229 67.9687 143.824 67.3684C144.617 66.568 145.24 66.7109 146.034 67.9401Z" fill="black"/>
<path d="M106.474 41.0816C100.709 41.1974 99.2605 41.3133 98.8345 41.6609C98.1529 42.2403 89.179 54.436 88.611 55.5947C88.0431 56.6955 88.2419 57.7094 89.1222 58.3177C89.463 58.5495 90.7125 58.9261 91.8769 59.1868C95.2279 59.882 95.2847 59.882 95.2847 60.4035C95.2847 61.1856 94.0068 62.692 89.0086 67.8773C86.396 70.5714 84.1241 73.1206 83.9821 73.5262C83.3857 75.3222 84.3797 75.9885 88.5258 76.5389C90.6841 76.8285 91.4793 77.0313 91.7633 77.4369C92.2744 78.1611 92.2744 80.1309 91.7065 82.2746C91.1385 84.5052 87.9011 91.4286 85.544 95.4552C82.9597 99.8584 82.7609 100.322 83.1585 100.727C83.8117 101.394 84.55 100.959 87.6739 98.0624C93.4104 92.7032 93.95 92.2397 99.4025 87.6048C107.524 80.7103 108.632 79.5805 108.632 78.1321C108.632 76.9155 107.695 76.452 104.344 76.0464C102.753 75.8436 101.39 75.5539 101.334 75.3801C101.277 75.2353 103.549 72.8019 106.417 70.021C111.642 64.9225 116.527 59.6213 117.492 58.0281C118.174 56.8693 118.174 55.3919 117.464 54.9864C117.152 54.8415 115.306 54.6967 113.318 54.6967C108.32 54.6967 108.291 54.8995 113.602 48.7582C116.868 44.9633 117.861 43.399 117.606 42.3851C117.265 40.9657 116.442 40.8788 106.474 41.0816ZM115.448 43.1962C115.448 43.428 114.596 44.6157 113.545 45.8324C112.466 47.049 110.762 49.0768 109.683 50.2935C107.695 52.611 107.07 53.9725 107.496 55.1022C107.922 56.232 109.172 56.5507 112.778 56.3479C114.709 56.261 116.072 56.29 116.186 56.4638C116.271 56.6376 116.158 57.0431 115.902 57.4197C115.135 58.6074 109.2 64.7777 104.798 68.9781C100.226 73.3234 99.0901 74.8008 99.3741 76.0174C99.6297 77.0313 100.851 77.4948 104.06 77.7845C105.877 77.9293 106.786 78.1321 106.871 78.3928C107.042 78.9143 105.281 80.5365 99.2889 85.5191C96.5626 87.7496 92.672 91.081 90.6841 92.877C88.6962 94.6731 87.0491 96.0636 87.0491 95.9767C87.0491 95.8608 88.2419 93.4564 89.7186 90.5885C91.1953 87.7496 92.672 84.679 93.0128 83.752C94.2339 80.3917 94.0068 76.9734 92.4448 75.7857C91.9905 75.467 90.8545 75.1484 89.321 74.9746C86.1688 74.598 85.6292 74.4531 85.6292 74.0476C85.6292 73.8738 87.5319 71.7591 89.8606 69.3547C94.9723 64.0535 96.6194 61.9967 96.875 60.6062C97.159 59.0999 96.4774 58.5785 93.4388 57.8253C92.0189 57.4777 90.7125 57.0721 90.5137 56.8693C90.2298 56.6086 90.6273 55.8844 92.4164 53.3062C93.666 51.5391 95.7107 48.5264 96.9602 46.6145C98.2097 44.7316 99.3741 43.1093 99.5445 43.0514C99.7149 43.0224 103.35 42.9355 107.638 42.8776C114.17 42.8196 115.448 42.8486 115.448 43.1962Z" fill="black"/>
<path d="M10.9851 45.8711C8.87974 47.5928 6.0841 53 7.29209 53C7.94786 53 11.1577 49.8256 12.055 48.2923C13.0559 46.5975 13.2975 45.1986 12.6073 45.0103C12.3657 44.9296 11.6409 45.3331 10.9851 45.8711Z" fill="black"/>
<path d="M312.471 48.6146C310.925 50.7379 313.375 56.2136 317.049 58.7838C319.206 60.3204 320.198 60.3763 321.947 59.0911C324.396 57.3031 326 54.2021 326 51.2128C326 48.3073 324.105 47.4692 321.189 49.0896C320.373 49.5366 319.527 50.0953 319.323 50.3467C318.973 50.7379 318.798 50.682 317.573 49.7042C315.795 48.3073 315.153 48 313.929 48C313.2 48 312.792 48.1676 312.471 48.6146ZM316.407 51.6319C317.369 52.3862 318.448 53.0287 318.769 53.0287C319.119 53.0287 320.139 52.47 321.043 51.7995C323.172 50.1791 323.784 50.0674 323.901 51.2966C324.221 54.3697 320.518 58.8676 318.302 58.0854C317.282 57.6943 315.357 55.2637 314.658 53.4478C313.987 51.7715 313.87 50.235 314.337 50.235C314.512 50.235 315.445 50.8496 316.407 51.6319Z" fill="black"/>
<path d="M13.8458 55.2795C13.3429 55.817 13 57.8204 13 60.1903C13 62.4136 13.1143 63 13.5943 63C13.9372 63 14.7829 60.1659 14.9658 58.4068C15.1029 57.0386 14.8058 55.1329 14.4629 55.0108C14.3029 54.9619 14.0286 55.0841 13.8458 55.2795Z" fill="black"/>
<path d="M289.175 58.4025C285.835 59.5875 283.432 63.2002 282.347 68.5469C282.083 69.992 281.82 71.1769 281.79 71.2347C281.761 71.2636 280.677 70.9168 279.417 70.3966C278.127 69.9053 276.047 69.2694 274.757 69.0093L272.413 68.4891L272.501 66.6105C272.647 64.0672 272.061 62.8533 270.332 62.0441C268.896 61.3505 267.929 61.4372 266.024 62.3909C263.357 63.7204 260.515 67.8533 260.075 71.0324C259.899 72.2463 259.987 72.4486 260.837 73.4023C262.537 75.3098 267.02 77.0728 270.244 77.0728C272.149 77.0728 273.614 76.2925 274.288 74.9052C274.698 74.0671 274.64 73.6335 273.849 71.2636C273.702 70.8301 273.849 70.8301 275.197 71.0613C276.047 71.2058 277.805 71.6683 279.124 72.1018L281.497 72.8821L281.702 77.0728C282.025 83.5467 283.109 89.8183 284.75 94.7605C285.307 96.4656 286.509 97.5061 288.238 97.7662C290.172 98.0263 295.066 97.4483 298.846 96.4945L302.158 95.6275L303.418 97.4194C305.469 100.252 308.517 104.905 309.631 106.928C310.832 109.067 311.536 109.587 311.536 108.315C311.536 107.304 309.338 103.055 306.671 98.8933C305.528 97.1304 304.532 95.5697 304.414 95.3674C304.268 95.1362 305.147 94.5581 307.228 93.6044C308.898 92.8241 311.037 91.668 312.004 91.0322C318.041 86.9571 319.8 81.2057 315.99 77.911C312.679 75.0208 307.433 74.9341 302.011 77.6797C300.751 78.3156 299.696 78.778 299.638 78.7491C299.608 78.6913 299.696 77.9977 299.872 77.2173C300.341 74.9341 300.224 69.4139 299.667 66.8417C298.26 60.2811 293.894 56.7551 289.175 58.4025ZM293.483 61.1482C296.267 62.8533 297.645 67.1596 297.41 73.4312C297.293 76.4948 297.117 77.3329 296.179 80.2231C295.271 82.9109 295.124 83.6334 295.388 84.1826C295.945 85.4542 297.147 85.1074 299.491 83.0265C301.982 80.83 303.418 79.934 305.938 79.0959C309.426 77.9399 313.03 78.4601 314.613 80.3098C316.693 82.7375 314.173 87.0438 308.957 90.0495C307.052 91.1478 302.715 93.0842 302.627 92.9108C302.597 92.853 301.572 91.6969 300.312 90.3385C298.114 87.8819 296.736 86.9571 295.857 87.3039C295.212 87.5351 295.593 88.1709 298.055 90.8877C299.169 92.1015 300.106 93.2576 300.106 93.431C300.106 94.1246 295.037 95.5697 290.641 96.1766C288.443 96.4656 288.003 96.4656 287.798 96.1188C287.652 95.9165 287.124 94.2402 286.626 92.4483C284.135 83.6045 283.578 73.0844 285.307 67.2174C286.802 62.073 290.494 59.3274 293.483 61.1482ZM270.215 64.2695C271.006 65.2522 270.889 66.8417 269.951 67.9978C269.101 69.0671 269.16 69.4429 270.478 70.5989C271.709 71.6972 272.735 73.6046 272.471 74.2983C272.178 75.0208 270.185 75.3965 268.427 75.0208C266.522 74.6451 262.918 73.0266 262.331 72.333C261.833 71.755 262.185 70.3388 263.386 67.9689C264.266 66.177 264.998 65.3678 266.669 64.3273C268.339 63.258 269.394 63.258 270.215 64.2695Z" fill="black"/>
<path d="M239.644 58.3194C238.28 58.8448 236.799 60.246 235.813 61.939C235.29 62.8439 234.913 63.165 234.594 63.0774C230.908 61.9682 230.211 61.8806 228.295 62.2017C224.667 62.8439 221.997 65.4126 220.111 70.1706C219.414 71.922 219.124 72.3307 218.689 72.2723C218.369 72.2139 217.179 72.0972 216.018 72.0096C214.074 71.8637 213.784 71.922 212.042 72.7686C209.053 74.2573 207.253 77.0303 207.021 80.5332C206.818 83.9192 208.124 89.7281 209.111 89.7281C209.43 89.7281 209.546 88.8524 209.633 84.6782C209.72 79.745 209.749 79.6283 210.591 78.0812C212.013 75.4832 214.277 74.4616 217.063 75.133L218.485 75.4541L218.66 79.5991C218.921 85.4371 219.85 89.2026 221.823 92.2092C224 95.5077 226.09 96.6462 228.063 95.6537C229.776 94.8072 230.298 93.8147 230.414 91.246C230.675 85.6706 227.454 78.2855 223.448 75.2205C222.839 74.7827 222.288 74.1989 222.2 73.9362C221.765 72.6226 224.755 67.2224 226.525 66.084C228.179 65.0915 230.82 64.9748 232.504 65.8505L233.81 66.5219L233.723 69.8787C233.52 75.746 234.623 81.4089 236.77 85.9042C238.338 89.2026 240.514 91.6254 242.198 91.9173C245.419 92.5303 247.19 89.261 246.464 84.0068C245.564 77.5266 242.836 71.3382 238.802 66.6094L237.38 64.9164L238.018 63.6028C238.773 61.9974 240.021 60.9173 241.356 60.6546C246.174 59.7497 254.62 72.7978 256.448 84.036C257.087 88.0058 257.435 89.2026 257.812 88.9691C258.219 88.7064 257.929 84.2111 257.29 80.5332C255.781 71.7177 249.715 61.1509 244.839 58.7864C243.127 57.9399 241.124 57.7648 239.644 58.3194ZM238.28 71.0463C239.934 73.4107 241.908 77.6725 242.662 80.5332C243.475 83.5689 243.736 87.9183 243.156 88.6772C242.778 89.2026 242.691 89.1735 241.53 87.9475C238.802 85.0576 236.915 79.3364 236.654 73.0021C236.538 70.6377 236.596 69.2949 236.77 69.2949C236.944 69.2949 237.612 70.0831 238.28 71.0463ZM223.216 79.132C225.596 81.8467 227.57 87.0134 227.57 90.487C227.57 92.472 227.367 92.939 226.554 92.939C225.248 92.939 223.187 89.5529 222.2 85.7874C221.62 83.6273 221.243 77.7601 221.707 77.7601C221.881 77.7601 222.549 78.3731 223.216 79.132Z" fill="black"/>
<path d="M4.68602 59.4077C4.54323 59.6061 4.28144 60.6266 4.13865 61.6186C3.92447 63.1209 3.94826 63.7729 4.28144 65.3885C4.73361 67.5711 5.20958 68.3931 5.68555 67.8262C6.04253 67.401 6.11393 61.1084 5.80455 59.7479C5.61416 58.8975 5.13819 58.7558 4.68602 59.4077Z" fill="black"/>
<path d="M17.072 61.4583C16.5737 62.8514 18.7724 69.1834 20.2382 70.6398C20.7366 71.1147 20.7952 71.1147 20.9711 70.6714C21.0591 70.4181 20.9418 69.0251 20.678 67.6004C19.9744 63.4846 17.717 59.6537 17.072 61.4583Z" fill="black"/>
</svg>
